<?xml version="1.0" encoding="utf-8"?>
<svg version="1.1" id="Layer_1" xmlns="http://www.w3.org/2000/svg" xmlns:xlink="http://www.w3.org/1999/xlink" x="0px" y="0px"
	 viewBox="0 0 335.5 66.7" style="enable-background:new 0 0 335.5 66.7;" xml:space="preserve">
<g>
	<path style="fill:#0E0E11;" d="M97.7,64.9l18.6-55.7h9.6l18.6,55.7h-7.2L120,13.3h2.2l-17.3,51.6L97.7,64.9L97.7,64.9z M106.7,45.4
		h28.9v6.5h-28.9V45.4z"/>
	<path style="fill:#0E0E11;" d="M164.1,66.1c-3.9,0-7.2-1-10-2.9s-4.9-4.6-6.4-7.9s-2.3-7.1-2.3-11.3s0.8-7.9,2.3-11.2
		s3.7-6,6.4-7.9c2.8-1.9,6.1-2.9,10-2.9s7.3,1,9.9,2.9s4.7,4.5,6.1,7.9s2.1,7.1,2.1,11.3s-0.7,7.9-2.1,11.2s-3.4,6-6.1,7.9
		C171.3,65.1,168,66.1,164.1,66.1 M165,59.8c2.8,0,5.1-0.7,6.9-2s3.1-3.2,4-5.6s1.3-5.1,1.3-8.1s-0.4-5.8-1.3-8.2
		c-0.9-2.4-2.2-4.2-4-5.5c-1.8-1.3-4-2-6.8-2s-5.2,0.7-7,2.1c-1.8,1.4-3.2,3.3-4.1,5.6c-0.9,2.4-1.3,5-1.3,8s0.5,5.6,1.3,8
		c0.9,2.4,2.3,4.3,4.1,5.7S162.2,59.8,165,59.8 M177.2,64.9V34.2h-0.8V9.2h6.9v55.7L177.2,64.9L177.2,64.9z"/>
	<path style="fill:#0E0E11;" d="M189.1,64.9V23.2h6.2v10.1l-1-1.3c0.5-1.3,1.1-2.5,1.9-3.6c0.8-1.1,1.7-2,2.7-2.7
		c1.1-0.9,2.3-1.5,3.7-2c1.4-0.5,2.8-0.7,4.2-0.8c1.4-0.1,2.7,0,4,0.2v6.5c-1.4-0.4-3-0.5-4.8-0.3c-1.7,0.2-3.3,0.8-4.8,1.9
		c-1.3,1-2.4,2.1-3.1,3.5c-0.7,1.4-1.2,2.8-1.5,4.4c-0.3,1.6-0.4,3.2-0.4,4.9v21L189.1,64.9L189.1,64.9z"/>
	<path style="fill:#0E0E11;" d="M232.7,66.1c-4.1,0-7.7-0.9-10.7-2.7c-3-1.8-5.4-4.4-7.1-7.6c-1.7-3.3-2.5-7.1-2.5-11.4
		s0.8-8.5,2.5-11.9c1.7-3.3,4-5.9,7-7.7c3-1.8,6.5-2.7,10.6-2.7s7.8,1,10.7,2.9c3,1.9,5.2,4.7,6.7,8.3c1.5,3.6,2.1,7.9,1.9,12.8h-7
		v-2.5c-0.1-5.1-1.1-9-3.1-11.5s-5-3.8-9-3.8c-4.2,0-7.5,1.4-9.7,4.1c-2.2,2.7-3.3,6.6-3.3,11.8s1.1,8.7,3.3,11.4
		c2.2,2.7,5.4,4.1,9.5,4.1c2.8,0,5.2-0.6,7.2-1.9s3.6-3.1,4.8-5.5l6.6,2.3c-1.6,3.7-4.1,6.5-7.3,8.6S236.7,66.1,232.7,66.1
		 M217.2,40.4h30.8V46h-30.8V40.4z"/>
	<path style="fill:#0E0E11;" d="M273.7,66c-5,0-9-1.1-12.2-3.3c-3.2-2.2-5.1-5.2-5.9-9.1l7-1.1c0.6,2.3,1.9,4.1,3.9,5.4
		c2,1.3,4.6,2,7.6,2c2.8,0,5.1-0.6,6.7-1.8c1.6-1.2,2.5-2.8,2.5-4.8c0-1.2-0.3-2.1-0.8-2.8s-1.7-1.4-3.3-2.1
		c-1.7-0.6-4.2-1.4-7.6-2.4c-3.7-1-6.6-2-8.7-3c-2.1-1-3.6-2.3-4.5-3.6c-0.9-1.4-1.3-3.1-1.3-5.1c0-2.5,0.7-4.6,2-6.4
		c1.3-1.8,3.2-3.2,5.6-4.3s5.2-1.5,8.4-1.5s6,0.5,8.5,1.5c2.5,1,4.5,2.4,6,4.3c1.5,1.9,2.4,4,2.7,6.4l-7,1.3c-0.3-2.2-1.4-4-3.2-5.3
		s-4.2-2-7-2.1c-2.7-0.1-4.9,0.4-6.6,1.5s-2.5,2.5-2.5,4.2c0,1,0.3,1.9,1,2.6s1.8,1.4,3.5,2c1.7,0.6,4.2,1.4,7.5,2.2
		c3.7,0.9,6.6,1.9,8.7,3c2.1,1.1,3.6,2.4,4.5,3.9c0.9,1.5,1.3,3.3,1.3,5.5c0,4-1.5,7.2-4.5,9.5C283,64.9,278.9,66,273.7,66"/>
	<path style="fill:#0E0E11;" d="M314.8,66.1c-4.2,0-7.7-0.9-10.7-2.8s-5.3-4.5-6.9-7.8s-2.4-7.1-2.4-11.5s0.8-8.2,2.5-11.5
		c1.7-3.3,4-5.9,7-7.7s6.6-2.8,10.6-2.8s7.8,0.9,10.8,2.8c3,1.9,5.3,4.5,6.9,7.8s2.4,7.1,2.4,11.4s-0.8,8.2-2.4,11.5
		c-1.6,3.3-3.9,5.9-7,7.8S318.9,66.1,314.8,66.1 M314.8,59.5c4.3,0,7.5-1.4,9.7-4.3c2.1-2.9,3.2-6.6,3.2-11.2s-1.1-8.4-3.2-11.2
		s-5.3-4.2-9.6-4.2c-2.9,0-5.3,0.7-7.2,2s-3.3,3.1-4.2,5.5s-1.4,5-1.4,8c0,4.7,1.1,8.5,3.2,11.3C307.4,58.1,310.6,59.5,314.8,59.5"
		/>
</g>
<g>
	<polygon style="fill:#1C4ED8;" points="23.2,64.9 -0.9,64.9 36.3,-0.1 60.4,-0.1 	"/>
	<polygon style="fill:#1C4ED8;" points="41.8,32.4 60.4,64.9 84.5,64.9 65.9,32.4 	"/>
	<polygon style="fill:#1C4ED8;" points="25.3,-0.1 6.7,32.4 1.2,-0.1 	"/>
</g>
</svg>
